<svg xmlns="http://www.w3.org/2000/svg" viewBox="0 0 860 460" role="img" aria-label="Hand-Off review window reference">
  <rect width="860" height="460" fill="#3b3b3b"/>
  <rect width="860" height="54" fill="#1f1f1f"/>
  <rect x="14" y="12" width="42" height="42" fill="#8b4227"/>
  <circle cx="35" cy="33" r="12" fill="none" stroke="#f4f4f4" stroke-width="3"/>
  <path d="M29 33l4 4 8-10" fill="none" stroke="#f4f4f4" stroke-width="3" stroke-linecap="round" stroke-linejoin="round"/>
  <text x="66" y="30" fill="#f0f0f0" font-family="Consolas, monospace" font-size="24">REVIEW</text>
  <text x="66" y="48" fill="#c6c6c6" font-family="Consolas, monospace" font-size="12">Created by Alex Crean</text>

  <rect x="8" y="68" width="844" height="110" fill="#444"/>
  <text x="18" y="88" fill="#f0f0f0" font-family="Consolas, monospace" font-size="14">Selection</text>
  <text x="18" y="118" fill="#7db9ff" font-family="Consolas, monospace" font-size="13">Target</text>
  <rect x="163" y="104" width="680" height="22" fill="#4d4d4d" stroke="#7a7a7a"/>
  <text x="171" y="119" fill="#d7d7d7" font-family="Consolas, monospace" font-size="13">Main Camera</text>
  <text x="18" y="146" fill="#bdbdbd" font-family="Consolas, monospace" font-size="13">Document Inside Note</text>
  <text x="162" y="146" fill="#bdbdbd" font-family="Consolas, monospace" font-size="13">No base note saved yet.</text>
  <rect x="14" y="154" width="832" height="18" fill="#4b4b4b" stroke="#666"/>
  <text x="22" y="168" fill="#d7d7d7" font-family="Consolas, monospace" font-size="12">Hand-Off Notes (Empty)</text>

  <rect x="8" y="188" width="844" height="110" fill="#444"/>
  <text x="18" y="208" fill="#f0f0f0" font-family="Consolas, monospace" font-size="14">Queue</text>
  <text x="18" y="242" fill="#cfcfcf" font-family="Consolas, monospace" font-size="13">Tracked Targets      1</text>
  <text x="18" y="268" fill="#cfcfcf" font-family="Consolas, monospace" font-size="13">Marked For Review    0</text>
  <text x="18" y="294" fill="#cfcfcf" font-family="Consolas, monospace" font-size="13">Blocked              1</text>

  <rect x="8" y="308" width="844" height="134" fill="#444"/>
  <text x="18" y="328" fill="#f0f0f0" font-family="Consolas, monospace" font-size="14">Recent Activity</text>
  <rect x="14" y="340" width="830" height="92" fill="#3b3b3b" stroke="#666"/>
  <text x="22" y="364" fill="#f0f0f0" font-family="Consolas, monospace" font-size="14">Main Camera</text>
  <text x="22" y="392" fill="#d0d0d0" font-family="Consolas, monospace" font-size="13">Review: Blocked  |  Not Passed  |  Updated: 2026-04-09 14:46</text>
  <text x="792" y="364" fill="#d0d0d0" font-family="Consolas, monospace" font-size="13">Ping</text>
</svg>
