<svg xmlns="http://www.w3.org/2000/svg" xmlns:xlink="http://www.w3.org/1999/xlink" width="160" zoomAndPan="magnify" viewBox="0 0 120 119.999999" height="160" preserveAspectRatio="xMidYMid meet" version="1.0"><defs><g/><clipPath id="97ec64e428"><rect x="0" width="119" y="0" height="59"/></clipPath></defs><g transform="matrix(1, 0, 0, 1, 0, 30)"><g clip-path="url(#97ec64e428)"><g fill="#9b9b9b" fill-opacity="1"><g transform="translate(0.00000075, 43.976983)"><g><path d="M 21.703125 -26.742188 L 24.039062 -23.023438 L 7.589844 -12.933594 L 7.058594 -13.804688 L 7.59375 -14.671875 L 24.097656 -4.453125 L 20.902344 -0.0898438 L 2.859375 -11.363281 L 2.859375 -16.292969 L 21.164062 -27.597656 Z M 19.976562 -25.65625 L 20.839844 -26.199219 L 21.375 -25.332031 L 4.417969 -14.855469 L 3.882812 -15.722656 L 4.902344 -15.722656 L 4.902344 -11.929688 L 3.882812 -11.929688 L 4.421875 -12.796875 L 21.179688 -2.320312 L 20.640625 -1.457031 L 19.816406 -2.058594 L 21.800781 -4.769531 L 22.625 -4.167969 L 22.089844 -3.300781 L 5.113281 -13.808594 L 22.09375 -24.222656 L 22.625 -23.351562 L 21.761719 -22.8125 Z M 19.976562 -25.65625 "/></g></g></g><g fill="#9b9b9b" fill-opacity="1"><g transform="translate(29.411844, 43.976983)"><g><path d="M 19.121094 -6.71875 L 7.101562 -6.71875 L 7.101562 -7.742188 L 8.074219 -7.433594 L 5.425781 1.019531 L -0.5 1.019531 L 10.042969 -31.386719 L 16.417969 -31.386719 L 26.960938 1.019531 L 20.796875 1.019531 L 18.144531 -7.433594 L 19.121094 -7.742188 Z M 19.867188 -8.761719 L 22.519531 -0.304688 L 21.542969 0 L 21.542969 -1.019531 L 25.558594 -1.019531 L 25.558594 0 L 24.589844 0.316406 L 14.710938 -30.050781 L 15.679688 -30.367188 L 15.679688 -29.347656 L 10.785156 -29.347656 L 10.785156 -30.367188 L 11.753906 -30.050781 L 1.875 0.316406 L 0.902344 0 L 0.902344 -1.019531 L 4.675781 -1.019531 L 4.675781 0 L 3.703125 -0.304688 L 6.351562 -8.761719 Z M 8.09375 -11.9375 L 18.125 -11.9375 L 18.125 -10.914062 L 17.152344 -10.617188 L 12.167969 -26.847656 L 13.144531 -27.144531 L 14.117188 -26.84375 L 9.066406 -10.613281 L 8.09375 -10.914062 Z M 6.707031 -9.894531 L 13.148438 -30.601562 L 19.507812 -9.894531 Z M 6.707031 -9.894531 "/></g></g></g><g fill="#9b9b9b" fill-opacity="1"><g transform="translate(58.823686, 43.976983)"><g><path d="M 15.789062 -31.871094 C 17.898438 -31.871094 19.675781 -31.597656 21.128906 -31.054688 C 22.570312 -30.519531 23.9375 -29.730469 25.226562 -28.691406 L 26.046875 -28.03125 L 22.5625 -23.972656 L 21.789062 -24.625 C 20.9375 -25.347656 20.039062 -25.859375 19.101562 -26.164062 C 18.140625 -26.476562 17.128906 -26.632812 16.074219 -26.632812 C 14.589844 -26.632812 13.21875 -26.28125 11.964844 -25.582031 C 10.742188 -24.902344 9.75 -23.753906 8.980469 -22.132812 C 8.1875 -20.457031 7.789062 -18.144531 7.789062 -15.195312 C 7.789062 -12.324219 8.167969 -10.046875 8.925781 -8.355469 C 9.652344 -6.734375 10.617188 -5.574219 11.824219 -4.875 C 13.0625 -4.15625 14.449219 -3.796875 15.988281 -3.796875 C 17.542969 -3.796875 18.796875 -4.023438 19.753906 -4.472656 C 20.773438 -4.953125 21.65625 -5.496094 22.398438 -6.105469 L 23.203125 -6.761719 L 26.402344 -2.710938 L 25.738281 -2.066406 C 24.726562 -1.085938 23.421875 -0.242188 21.824219 0.460938 C 20.207031 1.171875 18.246094 1.527344 15.945312 1.527344 C 13.296875 1.527344 10.898438 0.875 8.746094 -0.429688 C 6.585938 -1.734375 4.878906 -3.644531 3.628906 -6.148438 C 2.398438 -8.621094 1.78125 -11.636719 1.78125 -15.195312 C 1.78125 -18.769531 2.410156 -21.789062 3.667969 -24.257812 C 4.9375 -26.753906 6.648438 -28.648438 8.789062 -29.9375 C 10.929688 -31.226562 13.261719 -31.871094 15.789062 -31.871094 Z M 15.789062 -29.832031 C 13.640625 -29.832031 11.660156 -29.285156 9.84375 -28.191406 C 8.03125 -27.101562 6.578125 -25.480469 5.484375 -23.332031 C 4.375 -21.152344 3.820312 -18.441406 3.820312 -15.195312 C 3.820312 -11.957031 4.367188 -9.246094 5.457031 -7.058594 C 6.527344 -4.90625 7.976562 -3.277344 9.800781 -2.171875 C 11.628906 -1.066406 13.679688 -0.511719 15.945312 -0.511719 C 17.960938 -0.511719 19.648438 -0.8125 21 -1.40625 C 22.375 -2.011719 23.480469 -2.722656 24.320312 -3.535156 L 25.027344 -2.800781 L 24.230469 -2.167969 L 22.242188 -4.683594 L 23.042969 -5.316406 L 23.691406 -4.523438 C 22.816406 -3.808594 21.792969 -3.175781 20.621094 -2.628906 C 19.390625 -2.046875 17.84375 -1.757812 15.988281 -1.757812 C 14.085938 -1.757812 12.355469 -2.207031 10.800781 -3.109375 C 9.214844 -4.027344 7.96875 -5.5 7.0625 -7.523438 C 6.1875 -9.476562 5.75 -12.035156 5.75 -15.195312 C 5.75 -18.449219 6.210938 -21.054688 7.136719 -23.007812 C 8.089844 -25.019531 9.367188 -26.472656 10.96875 -27.363281 C 12.535156 -28.238281 14.238281 -28.671875 16.074219 -28.671875 C 17.34375 -28.671875 18.5625 -28.484375 19.730469 -28.105469 C 20.925781 -27.71875 22.050781 -27.078125 23.109375 -26.183594 L 22.449219 -25.402344 L 21.675781 -26.066406 L 23.8125 -28.558594 L 24.589844 -27.894531 L 23.949219 -27.101562 C 22.828125 -28.003906 21.652344 -28.683594 20.417969 -29.144531 C 19.195312 -29.601562 17.652344 -29.832031 15.789062 -29.832031 Z M 15.789062 -29.832031 "/></g></g></g><g fill="#9b9b9b" fill-opacity="1"><g transform="translate(88.235529, 43.976983)"><g><path d="M 6.203125 -27.066406 L 23.644531 -16.292969 L 23.644531 -11.367188 L 5.625 -0.0898438 L 2.40625 -4.476562 L 18.914062 -14.671875 L 19.449219 -13.804688 L 18.914062 -12.9375 L 2.464844 -23.074219 L 5.347656 -27.59375 Z M 5.132812 -25.332031 L 5.667969 -26.199219 L 6.527344 -25.648438 L 4.742188 -22.847656 L 3.882812 -23.398438 L 4.417969 -24.265625 L 21.394531 -13.804688 L 4.417969 -3.320312 L 3.882812 -4.191406 L 4.703125 -4.792969 L 6.710938 -2.058594 L 5.886719 -1.457031 L 5.347656 -2.320312 L 22.085938 -12.792969 L 22.625 -11.929688 L 21.605469 -11.929688 L 21.605469 -15.722656 L 22.625 -15.722656 L 22.089844 -14.855469 Z M 5.132812 -25.332031 "/></g></g></g><g fill="#9b9b9b" fill-opacity="1"><g transform="translate(0.00000075, 43.976983)"><g><path d="M 20.84375 -26.203125 L 22.625 -23.359375 L 7.0625 -13.8125 L 22.625 -4.171875 L 20.640625 -1.453125 L 3.875 -11.9375 L 3.875 -15.71875 Z M 20.84375 -26.203125 "/></g></g></g><g fill="#9b9b9b" fill-opacity="1"><g transform="translate(29.411844, 43.976983)"><g><path d="M 19.125 -7.734375 L 7.109375 -7.734375 L 4.671875 0 L 0.90625 0 L 10.78125 -30.375 L 15.6875 -30.375 L 25.5625 0 L 21.546875 0 Z M 8.09375 -10.921875 L 18.125 -10.921875 L 13.140625 -27.15625 Z M 8.09375 -10.921875 "/></g></g></g><g fill="#9b9b9b" fill-opacity="1"><g transform="translate(58.823686, 43.976983)"><g><path d="M 15.796875 -30.859375 C 17.773438 -30.859375 19.429688 -30.609375 20.765625 -30.109375 C 22.109375 -29.609375 23.382812 -28.875 24.59375 -27.90625 L 22.453125 -25.40625 C 21.492188 -26.21875 20.476562 -26.796875 19.40625 -27.140625 C 18.34375 -27.484375 17.234375 -27.65625 16.078125 -27.65625 C 14.410156 -27.65625 12.867188 -27.257812 11.453125 -26.46875 C 10.046875 -25.6875 8.910156 -24.382812 8.046875 -22.5625 C 7.191406 -20.75 6.765625 -18.296875 6.765625 -15.203125 C 6.765625 -12.179688 7.171875 -9.757812 7.984375 -7.9375 C 8.804688 -6.113281 9.914062 -4.796875 11.3125 -3.984375 C 12.707031 -3.179688 14.265625 -2.78125 15.984375 -2.78125 C 17.691406 -2.78125 19.09375 -3.035156 20.1875 -3.546875 C 21.28125 -4.066406 22.234375 -4.65625 23.046875 -5.3125 L 25.03125 -2.796875 C 24.101562 -1.898438 22.894531 -1.125 21.40625 -0.46875 C 19.925781 0.175781 18.109375 0.5 15.953125 0.5 C 13.492188 0.5 11.265625 -0.0976562 9.265625 -1.296875 C 7.273438 -2.503906 5.695312 -4.269531 4.53125 -6.59375 C 3.375 -8.925781 2.796875 -11.796875 2.796875 -15.203125 C 2.796875 -18.609375 3.390625 -21.472656 4.578125 -23.796875 C 5.765625 -26.117188 7.34375 -27.875 9.3125 -29.0625 C 11.289062 -30.257812 13.453125 -30.859375 15.796875 -30.859375 Z M 15.796875 -30.859375 "/></g></g></g><g fill="#9b9b9b" fill-opacity="1"><g transform="translate(88.235529, 43.976983)"><g><path d="M 5.671875 -26.203125 L 22.625 -15.71875 L 22.625 -11.9375 L 5.890625 -1.453125 L 3.875 -4.1875 L 19.453125 -13.8125 L 3.875 -23.40625 Z M 5.671875 -26.203125 "/></g></g></g></g></g></svg>